<svg width="142" height="30" viewBox="0 0 142 30" fill="none" xmlns="http://www.w3.org/2000/svg">
<path d="M120.467 12.8423C120.732 10.983 121.393 9.31269 122.45 7.83137C123.507 6.33229 124.86 5.15052 126.51 4.28604C128.16 3.40381 129.987 2.92356 131.992 2.84528C134.507 2.74706 136.497 3.23826 137.962 4.31888C138.9 5.00188 139.565 5.86269 139.957 6.90129C140.249 7.67412 140.395 8.06053 140.113 8.48662C139.831 8.9127 139.329 8.93227 138.327 8.97141L135.709 9.07365C135.381 9.08644 135.218 9.09284 135.076 9.05622C134.933 9.01959 134.455 8.73077 133.498 8.15314C133.421 8.10646 133.34 8.06302 133.254 8.0228C132.733 7.77649 132.085 7.66848 131.309 7.69876C129.929 7.75267 128.764 8.22482 127.816 9.11522C126.886 10.0049 126.318 11.1738 126.112 12.6219C126.039 13.1581 126.01 13.6036 126.025 13.9586C126.073 15.1479 126.469 16.0391 127.213 16.6323C127.957 17.2077 129.028 17.4681 130.427 17.4135C131.159 17.3849 131.83 17.242 132.441 16.9846C133.152 16.6849 133.507 16.5351 133.551 15.9251C133.562 15.7717 133.5 15.4954 133.425 15.3614C133.124 14.8281 132.599 14.8486 131.548 14.8897V14.8897C130.672 14.9239 130.235 14.9409 129.948 14.7209C129.849 14.6455 129.766 14.5527 129.701 14.4469C129.513 14.1381 129.577 13.7049 129.704 12.8385L129.72 12.732C129.821 12.045 129.871 11.7015 130.086 11.4732C130.124 11.4324 130.166 11.3949 130.211 11.3611C130.461 11.172 130.808 11.1584 131.502 11.1313L137.913 10.881C139.031 10.8373 139.591 10.8155 139.905 11.166C140.22 11.5165 140.137 12.07 139.973 13.1769L139.625 15.5147C139.597 15.703 139.583 15.7972 139.548 15.892C139.514 15.9869 139.47 16.0591 139.381 16.2036C138.469 17.6885 137.179 18.9946 135.51 20.1218C133.722 21.3294 131.627 21.9801 129.226 22.0739C127.448 22.1433 125.903 21.8925 124.592 21.3215C123.28 20.7327 122.261 19.8836 121.533 18.7742C120.806 17.6648 120.412 16.3646 120.351 14.8736C120.322 14.1636 120.361 13.4865 120.467 12.8423Z" fill="#E1F7DE"/>
<path d="M107.099 22.9913C105.416 23.057 103.918 22.7866 102.605 22.1801C101.293 21.5736 100.262 20.6893 99.5138 19.5274C98.7656 18.3655 98.3599 17.0124 98.2969 15.4681C98.2063 13.2494 98.6175 11.2599 99.5306 9.49977C100.462 7.72112 101.797 6.31784 103.535 5.28992C105.293 4.26127 107.325 3.70189 109.632 3.61179C111.353 3.54459 112.87 3.81426 114.182 4.42079C115.513 5.00884 116.553 5.88382 117.301 7.04575C118.049 8.18993 118.454 9.53414 118.517 11.0784C118.607 13.2794 118.186 15.2692 117.255 17.0479C116.324 18.8265 114.98 20.239 113.223 21.2854C111.466 22.3319 109.425 22.9005 107.099 22.9913ZM107.752 18.1123C108.868 18.0687 109.831 17.7556 110.64 17.1728C111.469 16.5894 112.082 15.8365 112.48 14.9143C112.896 13.9735 113.082 12.9707 113.039 11.9057C112.993 10.7697 112.626 9.90397 111.939 9.30857C111.269 8.69467 110.33 8.41136 109.119 8.45862C108.004 8.50219 107.032 8.81572 106.203 9.3992C105.374 9.96493 104.751 10.7093 104.334 11.6323C103.917 12.5552 103.731 13.5581 103.775 14.6409C103.821 15.7591 104.188 16.6337 104.876 17.2646C105.564 17.8777 106.523 18.1603 107.752 18.1123Z" fill="#E1F7DE"/>
<path d="M90.0197 17.1309C89.8608 18.2339 89.7814 18.7854 90.0958 19.1342C90.4102 19.4829 90.9671 19.4612 92.081 19.4177L93.4858 19.3628C94.5895 19.3197 95.1414 19.2982 95.4552 19.6396C95.461 19.646 95.4668 19.6525 95.4725 19.659C95.7773 20.0085 95.6948 20.5544 95.5299 21.6463V21.6463C95.4137 22.4152 95.3556 22.7997 95.0947 23.0379C95.0896 23.0425 95.0846 23.0471 95.0795 23.0515C94.8137 23.2844 94.4251 23.2996 93.6477 23.3299L85.8961 23.6327C84.7793 23.6763 84.2208 23.6981 83.9064 23.3482C83.5919 22.9983 83.6732 22.4456 83.8356 21.3401L86.0232 6.45713C86.1385 5.67293 86.1961 5.28082 86.4641 5.04012C86.7321 4.79941 87.1282 4.78395 87.9205 4.75301L89.4198 4.69446C90.5337 4.65096 91.0906 4.62921 91.405 4.97796C91.7194 5.32671 91.64 5.87821 91.4811 6.98121L90.0197 17.1309Z" fill="#E1F7DE"/>
<path d="M70.8381 24.4073C69.155 24.4731 67.6571 24.2027 66.3443 23.5961C65.0316 22.9896 64.0011 22.1054 63.2529 20.9434C62.5046 19.7815 62.0989 18.4284 62.0359 16.8842C61.9453 14.6654 62.3565 12.676 63.2696 10.9158C64.2008 9.13716 65.5357 7.73388 67.2742 6.70596C69.0316 5.6773 71.0638 5.11793 73.3709 5.02783C75.0918 4.96063 76.6086 5.23029 77.9213 5.83683C79.2523 6.42487 80.2919 7.29986 81.0401 8.46179C81.7877 9.60597 82.1929 10.9502 82.256 12.4944C82.3459 14.6954 81.9252 16.6853 80.9939 18.4639C80.0627 20.2426 78.7187 21.6551 76.9621 22.7015C75.2054 23.7479 73.1641 24.3165 70.8381 24.4073ZM71.4912 19.5284C72.6069 19.4848 73.5696 19.1716 74.3792 18.5889C75.2077 18.0054 75.821 17.2525 76.2189 16.3303C76.6351 15.3896 76.8215 14.3867 76.778 13.3217C76.7316 12.1857 76.3648 11.32 75.6775 10.7246C75.0085 10.1107 74.0688 9.8274 72.8585 9.87466C71.7428 9.91823 70.7707 10.2318 69.9422 10.8152C69.1129 11.381 68.4898 12.1253 68.0729 13.0483C67.6561 13.9713 67.4697 14.9741 67.5139 16.0569C67.5596 17.1751 67.9267 18.0497 68.6154 18.6806C69.3034 19.2938 70.262 19.5764 71.4912 19.5284Z" fill="#E1F7DE"/>
<path d="M59.4631 5.86429C60.5823 5.82059 61.1419 5.79873 61.4564 6.14947C61.7709 6.50021 61.6883 7.0539 61.523 8.16127L61.4994 8.31928C61.3826 9.10156 61.3242 9.4927 61.0564 9.73268C60.7886 9.97266 60.3933 9.9881 59.6027 10.019L57.6082 10.0969C56.8155 10.1278 56.4191 10.1433 56.151 10.3842C55.883 10.6251 55.8256 11.0175 55.7107 11.8022L54.0362 23.2455C53.9214 24.0303 53.864 24.4227 53.5959 24.6636C53.3279 24.9045 52.9315 24.92 52.1387 24.9509L50.6177 25.0103C49.5015 25.0539 48.9434 25.0757 48.629 24.7261C48.3145 24.3764 48.3954 23.824 48.5571 22.719L50.0136 12.7652C50.1753 11.6603 50.2562 11.1078 49.9417 10.7582C49.6273 10.4085 49.0692 10.4303 47.953 10.4739L47.5034 10.4915C46.3842 10.5352 45.8247 10.557 45.5101 10.2063C45.1956 9.85555 45.2783 9.30186 45.4436 8.19448L45.4672 8.03647C45.5839 7.25419 45.6423 6.86306 45.9101 6.62308C46.1779 6.3831 46.5732 6.36766 47.3638 6.33678L59.4631 5.86429Z" fill="#E1F7DE"/>
<path d="M29.6677 7.02784C30.7806 6.98438 31.3371 6.96265 31.6515 7.31106C31.9658 7.65947 31.887 8.21059 31.7293 9.31283L30.5002 17.9023C30.4566 18.2241 30.4405 18.5269 30.4521 18.8109C30.4811 19.5209 30.7021 20.0634 31.1152 20.4384C31.5472 20.8127 32.1887 20.9832 33.0396 20.9499C34.0608 20.9101 34.8722 20.6028 35.4738 20.0282C36.0754 19.4536 36.4504 18.6656 36.599 17.6642L37.9575 8.33671C38.0719 7.55138 38.1291 7.15872 38.3972 6.9176C38.6653 6.67647 39.062 6.66099 39.8552 6.63001L41.3484 6.5717C42.4639 6.52814 43.0217 6.50635 43.3361 6.85573C43.6505 7.2051 43.5701 7.75729 43.4092 8.86167L42.1587 17.4471C41.9097 19.2346 41.3182 20.7511 40.3841 21.9965C39.45 23.2419 38.2861 24.1941 36.8925 24.8529C35.4981 25.4941 33.9594 25.8475 32.2763 25.9132C30.1016 25.9982 28.3306 25.534 26.9634 24.5207C25.615 23.5066 24.9003 22.0056 24.8191 20.0176C24.793 19.3786 24.8335 18.7459 24.9405 18.1195L26.2991 8.79199C26.4135 8.00666 26.4706 7.614 26.7388 7.37288C27.0069 7.13175 27.4035 7.11626 28.1968 7.08529L29.6677 7.02784Z" fill="#E1F7DE"/>
<path d="M15.8706 24.8338C15.7332 24.1759 15.6644 23.8469 15.4497 23.6346C15.3942 23.5798 15.3325 23.5316 15.2658 23.491C15.0079 23.3342 14.6721 23.3473 14.0007 23.3735L9.65622 23.5431C9.07396 23.5659 8.78282 23.5772 8.55176 23.7281C8.32071 23.8789 8.19338 24.1408 7.93874 24.6644L7.46367 25.6413C7.20902 26.165 7.0817 26.4268 6.85064 26.5776C6.61958 26.7285 6.32845 26.7399 5.74618 26.7626L4.55427 26.8091C3.01773 26.8691 2.24947 26.8991 1.94053 26.4114C1.6316 25.9236 1.98774 25.2428 2.70001 23.8814L10.6031 8.77521C10.8645 8.27559 10.9952 8.02579 11.2218 7.88255C11.4484 7.73932 11.7303 7.72831 12.2942 7.70629L15.9103 7.56508C16.6949 7.53444 17.0873 7.51912 17.3728 7.73496C17.6584 7.9508 17.7509 8.33253 17.9358 9.09599L21.4861 23.7549C21.7517 24.8518 21.8846 25.4002 21.5997 25.7774C21.3148 26.1546 20.7511 26.1766 19.6238 26.2207L17.7406 26.2942C17.0691 26.3204 16.7334 26.3335 16.4754 26.1766C16.4088 26.1361 16.3471 26.0879 16.2916 26.0331C16.0769 25.8208 16.0081 25.4918 15.8706 24.8338V24.8338ZM12.9722 19.4402C13.5138 19.419 13.7845 19.4085 13.9812 19.3073C14.2403 19.1741 14.4281 18.9344 14.4955 18.651C14.5467 18.4358 14.4923 18.1702 14.3834 17.6392V17.6392C14.1423 16.4628 14.0218 15.8746 13.7839 15.6555C13.4708 15.3671 13.0098 15.3079 12.6348 15.508C12.35 15.66 12.0867 16.199 11.5601 17.2768V17.2768C11.2358 17.9405 11.0737 18.2724 11.0911 18.5376C11.114 18.8868 11.3178 19.1989 11.6283 19.3606C11.8643 19.4835 12.2336 19.469 12.9722 19.4402V19.4402Z" fill="#E1F7DE"/>
</svg>
